<?xml version="1.0" encoding="UTF-8" standalone="no"?>
<!DOCTYPE svg PUBLIC "-//W3C//DTD SVG 1.1//EN"
 "http://www.w3.org/Graphics/SVG/1.1/DTD/svg11.dtd">
<!-- Generated by graphviz version 2.28.0 (20110509.1543)
 -->
<!-- Title: glow Pages: 1 -->
<svg width="462pt" height="836pt"
 viewBox="0.00 0.00 462.00 836.00" xmlns="http://www.w3.org/2000/svg" xmlns:xlink="http://www.w3.org/1999/xlink">
<g id="graph1" class="graph" transform="scale(1 1) rotate(0) translate(4 832)">
<title>glow</title>
<polygon fill="white" stroke="white" points="-4,5 -4,-832 459,-832 459,5 -4,5"/>
<!-- Source0 -->
<g id="node2" class="node"><title>Source0</title>
<ellipse fill="white" stroke="white" cx="238" cy="-738" rx="42.5207" ry="18"/>
<text text-anchor="middle" x="238" y="-732.4" font-family="Times,serif" font-size="14.00">Source0</text>
</g>
<!-- d0_0 -->
<g id="node28" class="node"><title>d0_0</title>
<ellipse fill="none" stroke="black" cx="199" cy="-666" rx="30.0272" ry="18"/>
<text text-anchor="middle" x="199" y="-660.4" font-family="Times,serif" font-size="14.00">d0_0</text>
</g>
<!-- Source0&#45;&gt;d0_0 -->
<g id="edge23" class="edge"><title>Source0&#45;&gt;d0_0</title>
<path fill="none" stroke="black" d="M228.758,-720.411C224.095,-712.042 218.338,-701.71 213.135,-692.37"/>
<polygon fill="black" stroke="black" points="216.101,-690.502 208.176,-683.47 209.986,-693.909 216.101,-690.502"/>
</g>
<!-- d0_1 -->
<g id="node30" class="node"><title>d0_1</title>
<ellipse fill="none" stroke="black" cx="300" cy="-666" rx="30.0272" ry="18"/>
<text text-anchor="middle" x="300" y="-660.4" font-family="Times,serif" font-size="14.00">d0_1</text>
</g>
<!-- Source0&#45;&gt;d0_1 -->
<g id="edge25" class="edge"><title>Source0&#45;&gt;d0_1</title>
<path fill="none" stroke="black" d="M252.38,-720.765C260.509,-711.586 270.803,-699.964 279.739,-689.875"/>
<polygon fill="black" stroke="black" points="282.537,-691.995 286.547,-682.189 277.296,-687.354 282.537,-691.995"/>
</g>
<!-- Map1_0_2 -->
<g id="node4" class="node"><title>Map1_0_2</title>
<ellipse fill="white" stroke="white" cx="188" cy="-594" rx="52.3215" ry="18"/>
<text text-anchor="middle" x="188" y="-588.4" font-family="Times,serif" font-size="14.00">Map1_0_2</text>
</g>
<!-- Map2_0_2 -->
<g id="node6" class="node"><title>Map2_0_2</title>
<ellipse fill="white" stroke="white" cx="143" cy="-522" rx="52.3215" ry="18"/>
<text text-anchor="middle" x="143" y="-516.4" font-family="Times,serif" font-size="14.00">Map2_0_2</text>
</g>
<!-- Map1_0_2&#45;&gt;Map2_0_2 -->
<g id="edge4" class="edge"><title>Map1_0_2&#45;&gt;Map2_0_2</title>
<path fill="none" stroke="black" d="M177.107,-576.055C171.745,-567.715 165.173,-557.491 159.233,-548.252"/>
<polygon fill="black" stroke="black" points="162.145,-546.308 153.793,-539.789 156.256,-550.093 162.145,-546.308"/>
</g>
<!-- Partition_scatter3_0_2 -->
<g id="node7" class="node"><title>Partition_scatter3_0_2</title>
<ellipse fill="white" stroke="white" cx="120" cy="-450" rx="98.2016" ry="18"/>
<text text-anchor="middle" x="120" y="-444.4" font-family="Times,serif" font-size="14.00">Partition_scatter3_0_2</text>
</g>
<!-- Map2_0_2&#45;&gt;Partition_scatter3_0_2 -->
<g id="edge5" class="edge"><title>Map2_0_2&#45;&gt;Partition_scatter3_0_2</title>
<path fill="none" stroke="black" d="M137.432,-504.055C134.844,-496.176 131.703,-486.617 128.804,-477.794"/>
<polygon fill="black" stroke="black" points="132.123,-476.683 125.676,-468.275 125.473,-478.868 132.123,-476.683"/>
</g>
<!-- d3_0 -->
<g id="node33" class="node"><title>d3_0</title>
<ellipse fill="none" stroke="black" cx="109" cy="-378" rx="30.0272" ry="18"/>
<text text-anchor="middle" x="109" y="-372.4" font-family="Times,serif" font-size="14.00">d3_0</text>
</g>
<!-- Partition_scatter3_0_2&#45;&gt;d3_0 -->
<g id="edge29" class="edge"><title>Partition_scatter3_0_2&#45;&gt;d3_0</title>
<path fill="none" stroke="black" d="M117.281,-431.697C116.069,-423.983 114.612,-414.712 113.261,-406.112"/>
<polygon fill="black" stroke="black" points="116.698,-405.44 111.688,-396.104 109.783,-406.526 116.698,-405.44"/>
</g>
<!-- d3_2 -->
<g id="node35" class="node"><title>d3_2</title>
<ellipse fill="none" stroke="black" cx="188" cy="-378" rx="30.0272" ry="18"/>
<text text-anchor="middle" x="188" y="-372.4" font-family="Times,serif" font-size="14.00">d3_2</text>
</g>
<!-- Partition_scatter3_0_2&#45;&gt;d3_2 -->
<g id="edge31" class="edge"><title>Partition_scatter3_0_2&#45;&gt;d3_2</title>
<path fill="none" stroke="black" d="M136.461,-432.055C145.482,-422.769 156.771,-411.148 166.482,-401.151"/>
<polygon fill="black" stroke="black" points="169.08,-403.5 173.537,-393.888 164.059,-398.622 169.08,-403.5"/>
</g>
<!-- Map1_1_2 -->
<g id="node9" class="node"><title>Map1_1_2</title>
<ellipse fill="white" stroke="white" cx="312" cy="-594" rx="52.3215" ry="18"/>
<text text-anchor="middle" x="312" y="-588.4" font-family="Times,serif" font-size="14.00">Map1_1_2</text>
</g>
<!-- Map2_1_2 -->
<g id="node11" class="node"><title>Map2_1_2</title>
<ellipse fill="white" stroke="white" cx="312" cy="-522" rx="52.3215" ry="18"/>
<text text-anchor="middle" x="312" y="-516.4" font-family="Times,serif" font-size="14.00">Map2_1_2</text>
</g>
<!-- Map1_1_2&#45;&gt;Map2_1_2 -->
<g id="edge8" class="edge"><title>Map1_1_2&#45;&gt;Map2_1_2</title>
<path fill="none" stroke="black" d="M312,-575.697C312,-567.983 312,-558.712 312,-550.112"/>
<polygon fill="black" stroke="black" points="315.5,-550.104 312,-540.104 308.5,-550.104 315.5,-550.104"/>
</g>
<!-- Partition_scatter3_1_2 -->
<g id="node12" class="node"><title>Partition_scatter3_1_2</title>
<ellipse fill="white" stroke="white" cx="335" cy="-450" rx="98.2016" ry="18"/>
<text text-anchor="middle" x="335" y="-444.4" font-family="Times,serif" font-size="14.00">Partition_scatter3_1_2</text>
</g>
<!-- Map2_1_2&#45;&gt;Partition_scatter3_1_2 -->
<g id="edge9" class="edge"><title>Map2_1_2&#45;&gt;Partition_scatter3_1_2</title>
<path fill="none" stroke="black" d="M317.568,-504.055C320.156,-496.176 323.297,-486.617 326.196,-477.794"/>
<polygon fill="black" stroke="black" points="329.527,-478.868 329.324,-468.275 322.877,-476.683 329.527,-478.868"/>
</g>
<!-- d3_1 -->
<g id="node38" class="node"><title>d3_1</title>
<ellipse fill="none" stroke="black" cx="267" cy="-378" rx="30.0272" ry="18"/>
<text text-anchor="middle" x="267" y="-372.4" font-family="Times,serif" font-size="14.00">d3_1</text>
</g>
<!-- Partition_scatter3_1_2&#45;&gt;d3_1 -->
<g id="edge35" class="edge"><title>Partition_scatter3_1_2&#45;&gt;d3_1</title>
<path fill="none" stroke="black" d="M318.539,-432.055C309.518,-422.769 298.229,-411.148 288.518,-401.151"/>
<polygon fill="black" stroke="black" points="290.941,-398.622 281.463,-393.888 285.92,-403.5 290.941,-398.622"/>
</g>
<!-- d3_3 -->
<g id="node40" class="node"><title>d3_3</title>
<ellipse fill="none" stroke="black" cx="346" cy="-378" rx="30.0272" ry="18"/>
<text text-anchor="middle" x="346" y="-372.4" font-family="Times,serif" font-size="14.00">d3_3</text>
</g>
<!-- Partition_scatter3_1_2&#45;&gt;d3_3 -->
<g id="edge37" class="edge"><title>Partition_scatter3_1_2&#45;&gt;d3_3</title>
<path fill="none" stroke="black" d="M337.719,-431.697C338.931,-423.983 340.388,-414.712 341.739,-406.112"/>
<polygon fill="black" stroke="black" points="345.217,-406.526 343.312,-396.104 338.302,-405.44 345.217,-406.526"/>
</g>
<!-- Partition_collect4_0_2 -->
<g id="node14" class="node"><title>Partition_collect4_0_2</title>
<ellipse fill="white" stroke="white" cx="109" cy="-306" rx="99.0079" ry="18"/>
<text text-anchor="middle" x="109" y="-300.4" font-family="Times,serif" font-size="14.00">Partition_collect4_0_2</text>
</g>
<!-- LocalSort5_0_2 -->
<g id="node16" class="node"><title>LocalSort5_0_2</title>
<ellipse fill="white" stroke="white" cx="109" cy="-234" rx="72.8907" ry="18"/>
<text text-anchor="middle" x="109" y="-228.4" font-family="Times,serif" font-size="14.00">LocalSort5_0_2</text>
</g>
<!-- Partition_collect4_0_2&#45;&gt;LocalSort5_0_2 -->
<g id="edge12" class="edge"><title>Partition_collect4_0_2&#45;&gt;LocalSort5_0_2</title>
<path fill="none" stroke="black" d="M109,-287.697C109,-279.983 109,-270.712 109,-262.112"/>
<polygon fill="black" stroke="black" points="112.5,-262.104 109,-252.104 105.5,-262.104 112.5,-262.104"/>
</g>
<!-- LocalGroupByKey6_0_2 -->
<g id="node17" class="node"><title>LocalGroupByKey6_0_2</title>
<ellipse fill="white" stroke="white" cx="109" cy="-162" rx="109.293" ry="18"/>
<text text-anchor="middle" x="109" y="-156.4" font-family="Times,serif" font-size="14.00">LocalGroupByKey6_0_2</text>
</g>
<!-- LocalSort5_0_2&#45;&gt;LocalGroupByKey6_0_2 -->
<g id="edge13" class="edge"><title>LocalSort5_0_2&#45;&gt;LocalGroupByKey6_0_2</title>
<path fill="none" stroke="black" d="M109,-215.697C109,-207.983 109,-198.712 109,-190.112"/>
<polygon fill="black" stroke="black" points="112.5,-190.104 109,-180.104 105.5,-190.104 112.5,-190.104"/>
</g>
<!-- Map7_0_2 -->
<g id="node18" class="node"><title>Map7_0_2</title>
<ellipse fill="white" stroke="white" cx="165" cy="-90" rx="52.3215" ry="18"/>
<text text-anchor="middle" x="165" y="-84.4" font-family="Times,serif" font-size="14.00">Map7_0_2</text>
</g>
<!-- LocalGroupByKey6_0_2&#45;&gt;Map7_0_2 -->
<g id="edge14" class="edge"><title>LocalGroupByKey6_0_2&#45;&gt;Map7_0_2</title>
<path fill="none" stroke="black" d="M122.556,-144.055C129.366,-135.543 137.745,-125.068 145.255,-115.681"/>
<polygon fill="black" stroke="black" points="148.055,-117.784 151.569,-107.789 142.589,-113.411 148.055,-117.784"/>
</g>
<!-- end -->
<g id="node44" class="node"><title>end</title>
<polygon fill="none" stroke="black" points="259.161,-36.2145 222.839,-36.2145 222.839,0.214502 259.161,0.214502 259.161,-36.2145"/>
<polyline fill="none" stroke="black" points="234.839,-36.2145 222.839,-24.2145 "/>
<polyline fill="none" stroke="black" points="222.839,-11.7855 234.839,0.214502 "/>
<polyline fill="none" stroke="black" points="247.161,0.214502 259.161,-11.7855 "/>
<polyline fill="none" stroke="black" points="259.161,-24.2145 247.161,-36.2145 "/>
<text text-anchor="middle" x="241" y="-12.4" font-family="Times,serif" font-size="14.00">end</text>
</g>
<!-- Map7_0_2&#45;&gt;end -->
<g id="edge43" class="edge"><title>Map7_0_2&#45;&gt;end</title>
<path fill="none" stroke="black" d="M182.627,-72.7646C192.366,-63.7947 204.639,-52.4902 215.416,-42.5643"/>
<polygon fill="black" stroke="black" points="217.957,-44.9826 222.941,-35.6334 213.214,-39.8338 217.957,-44.9826"/>
</g>
<!-- Partition_collect4_1_2 -->
<g id="node20" class="node"><title>Partition_collect4_1_2</title>
<ellipse fill="white" stroke="white" cx="345" cy="-306" rx="99.0079" ry="18"/>
<text text-anchor="middle" x="345" y="-300.4" font-family="Times,serif" font-size="14.00">Partition_collect4_1_2</text>
</g>
<!-- LocalSort5_1_2 -->
<g id="node22" class="node"><title>LocalSort5_1_2</title>
<ellipse fill="white" stroke="white" cx="345" cy="-234" rx="72.8907" ry="18"/>
<text text-anchor="middle" x="345" y="-228.4" font-family="Times,serif" font-size="14.00">LocalSort5_1_2</text>
</g>
<!-- Partition_collect4_1_2&#45;&gt;LocalSort5_1_2 -->
<g id="edge17" class="edge"><title>Partition_collect4_1_2&#45;&gt;LocalSort5_1_2</title>
<path fill="none" stroke="black" d="M345,-287.697C345,-279.983 345,-270.712 345,-262.112"/>
<polygon fill="black" stroke="black" points="348.5,-262.104 345,-252.104 341.5,-262.104 348.5,-262.104"/>
</g>
<!-- LocalGroupByKey6_1_2 -->
<g id="node23" class="node"><title>LocalGroupByKey6_1_2</title>
<ellipse fill="white" stroke="white" cx="345" cy="-162" rx="109.293" ry="18"/>
<text text-anchor="middle" x="345" y="-156.4" font-family="Times,serif" font-size="14.00">LocalGroupByKey6_1_2</text>
</g>
<!-- LocalSort5_1_2&#45;&gt;LocalGroupByKey6_1_2 -->
<g id="edge18" class="edge"><title>LocalSort5_1_2&#45;&gt;LocalGroupByKey6_1_2</title>
<path fill="none" stroke="black" d="M345,-215.697C345,-207.983 345,-198.712 345,-190.112"/>
<polygon fill="black" stroke="black" points="348.5,-190.104 345,-180.104 341.5,-190.104 348.5,-190.104"/>
</g>
<!-- Map7_1_2 -->
<g id="node24" class="node"><title>Map7_1_2</title>
<ellipse fill="white" stroke="white" cx="317" cy="-90" rx="52.3215" ry="18"/>
<text text-anchor="middle" x="317" y="-84.4" font-family="Times,serif" font-size="14.00">Map7_1_2</text>
</g>
<!-- LocalGroupByKey6_1_2&#45;&gt;Map7_1_2 -->
<g id="edge19" class="edge"><title>LocalGroupByKey6_1_2&#45;&gt;Map7_1_2</title>
<path fill="none" stroke="black" d="M338.079,-143.697C334.925,-135.813 331.122,-126.304 327.619,-117.546"/>
<polygon fill="black" stroke="black" points="330.805,-116.089 323.842,-108.104 324.306,-118.689 330.805,-116.089"/>
</g>
<!-- Map7_1_2&#45;&gt;end -->
<g id="edge49" class="edge"><title>Map7_1_2&#45;&gt;end</title>
<path fill="none" stroke="black" d="M299.373,-72.7646C289.634,-63.7947 277.361,-52.4902 266.584,-42.5643"/>
<polygon fill="black" stroke="black" points="268.786,-39.8338 259.059,-35.6334 264.043,-44.9826 268.786,-39.8338"/>
</g>
<!-- start -->
<g id="node25" class="node"><title>start</title>
<polygon fill="none" stroke="black" points="238,-828 198.818,-810 238,-792 277.182,-810 238,-828"/>
<polyline fill="none" stroke="black" points="209.723,-815.009 209.723,-804.991 "/>
<polyline fill="none" stroke="black" points="227.096,-797.009 248.904,-797.009 "/>
<polyline fill="none" stroke="black" points="266.277,-804.991 266.277,-815.009 "/>
<polyline fill="none" stroke="black" points="248.904,-822.991 227.096,-822.991 "/>
<text text-anchor="middle" x="238" y="-804.4" font-family="Times,serif" font-size="14.00">start</text>
</g>
<!-- start&#45;&gt;Source0 -->
<g id="edge21" class="edge"><title>start&#45;&gt;Source0</title>
<path fill="none" stroke="black" d="M238,-791.697C238,-783.983 238,-774.712 238,-766.112"/>
<polygon fill="black" stroke="black" points="241.5,-766.104 238,-756.104 234.5,-766.104 241.5,-766.104"/>
</g>
<!-- d0_0&#45;&gt;Map1_0_2 -->
<g id="edge27" class="edge"><title>d0_0&#45;&gt;Map1_0_2</title>
<path fill="none" stroke="black" d="M196.337,-648.055C195.126,-640.346 193.661,-631.027 192.3,-622.364"/>
<polygon fill="black" stroke="black" points="195.725,-621.611 190.715,-612.275 188.81,-622.697 195.725,-621.611"/>
</g>
<!-- d0_1&#45;&gt;Map1_1_2 -->
<g id="edge33" class="edge"><title>d0_1&#45;&gt;Map1_1_2</title>
<path fill="none" stroke="black" d="M302.905,-648.055C304.226,-640.346 305.824,-631.027 307.309,-622.364"/>
<polygon fill="black" stroke="black" points="310.798,-622.723 309.039,-612.275 303.899,-621.54 310.798,-622.723"/>
</g>
<!-- d3_0&#45;&gt;Partition_collect4_0_2 -->
<g id="edge39" class="edge"><title>d3_0&#45;&gt;Partition_collect4_0_2</title>
<path fill="none" stroke="black" d="M109,-359.697C109,-351.983 109,-342.712 109,-334.112"/>
<polygon fill="black" stroke="black" points="112.5,-334.104 109,-324.104 105.5,-334.104 112.5,-334.104"/>
</g>
<!-- d3_2&#45;&gt;Partition_collect4_1_2 -->
<g id="edge45" class="edge"><title>d3_2&#45;&gt;Partition_collect4_1_2</title>
<path fill="none" stroke="black" d="M211.504,-366.52C234.791,-356.138 271.054,-339.969 299.911,-327.103"/>
<polygon fill="black" stroke="black" points="301.676,-330.149 309.384,-322.88 298.826,-323.755 301.676,-330.149"/>
</g>
<!-- d3_1&#45;&gt;Partition_collect4_0_2 -->
<g id="edge41" class="edge"><title>d3_1&#45;&gt;Partition_collect4_0_2</title>
<path fill="none" stroke="black" d="M243.346,-366.52C219.809,-356.092 183.099,-339.829 153.998,-326.936"/>
<polygon fill="black" stroke="black" points="155.403,-323.73 144.843,-322.88 152.568,-330.13 155.403,-323.73"/>
</g>
<!-- d3_3&#45;&gt;Partition_collect4_1_2 -->
<g id="edge47" class="edge"><title>d3_3&#45;&gt;Partition_collect4_1_2</title>
<path fill="none" stroke="black" d="M345.753,-359.697C345.643,-351.983 345.51,-342.712 345.387,-334.112"/>
<polygon fill="black" stroke="black" points="348.887,-334.053 345.244,-324.104 341.888,-334.153 348.887,-334.053"/>
</g>
</g>
</svg>
